HIERARCHY
ROOT Hips
{
	OFFSET 0.00000 0.00000 0.00000
	CHANNELS 6 Xposition Yposition Zposition Zrotation Yrotation Xrotation 
	JOINT LHipJoint
	{
		OFFSET 0 0 0
		CHANNELS 3 Zrotation Yrotation Xrotation
		JOINT LeftUpLeg
		{
			OFFSET 1.53794 -1.55850 0.93568
			CHANNELS 3 Zrotation Yrotation Xrotation
			JOINT LeftLeg
			{
				OFFSET 2.28545 -6.27922 0.00000
				CHANNELS 3 Zrotation Yrotation Xrotation
				JOINT LeftFoot
				{
					OFFSET 2.37329 -6.52057 0.00000
					CHANNELS 3 Zrotation Yrotation Xrotation
					JOINT LeftToeBase
					{
						OFFSET 0.14846 -0.40788 2.09160
						CHANNELS 3 Zrotation Yrotation Xrotation
						End Site
						{
							OFFSET 0.00000 -0.00000 1.07536
						}
					}
				}
			}
		}
	}
	JOINT RHipJoint
	{
		OFFSET 0 0 0
		CHANNELS 3 Zrotation Yrotation Xrotation
		JOINT RightUpLeg
		{
			OFFSET -1.78290 -1.55850 0.93568
			CHANNELS 3 Zrotation Yrotation Xrotation
			JOINT RightLeg
			{
				OFFSET -2.24144 -6.15831 0.00000
				CHANNELS 3 Zrotation Yrotation Xrotation
				JOINT RightFoot
				{
					OFFSET -2.35091 -6.45907 0.00000
					CHANNELS 3 Zrotation Yrotation Xrotation
					JOINT RightToeBase
					{
						OFFSET -0.14428 -0.39641 2.07944
						CHANNELS 3 Zrotation Yrotation Xrotation
						End Site
						{
							OFFSET -0.00000 -0.00000 1.06864
						}
					}
				}
			}
		}
	}
	JOINT LowerBack
	{
		OFFSET 0 0 0
		CHANNELS 3 Zrotation Yrotation Xrotation
		JOINT Spine
		{
			OFFSET -0.08841 2.11430 -0.15818
			CHANNELS 3 Zrotation Yrotation Xrotation
			JOINT Spine1
			{
				OFFSET -0.00033 2.12605 -0.08097
				CHANNELS 3 Zrotation Yrotation Xrotation
				JOINT Neck
				{
					OFFSET 0 0 0
					CHANNELS 3 Zrotation Yrotation Xrotation
					JOINT Neck1
					{
						OFFSET 0.04431 1.59447 0.43193
						CHANNELS 3 Zrotation Yrotation Xrotation
						JOINT Head
						{
							OFFSET 0.00455 1.62017 -0.58852
							CHANNELS 3 Zrotation Yrotation Xrotation
							End Site
							{
								OFFSET -0.00920 1.72955 -0.25850
							}
						}
					}
				}
				JOINT LeftShoulder
				{
					OFFSET 0 0 0
					CHANNELS 3 Zrotation Yrotation Xrotation
					JOINT LeftArm
					{
						OFFSET 2.86490 1.49927 -0.33774
						CHANNELS 3 Zrotation Yrotation Xrotation
						JOINT LeftForeArm
						{
							OFFSET 4.87408 -0.00000 0.00000
							CHANNELS 3 Zrotation Yrotation Xrotation
							JOINT LeftHand
							{
								OFFSET 2.76729 -0.00000 0.00000
								CHANNELS 3 Zrotation Yrotation Xrotation
								JOINT LeftFingerBase
								{
									OFFSET 0 0 0
									CHANNELS 3 Zrotation Yrotation Xrotation
									JOINT LeftHandIndex1
									{
										OFFSET 0.98922 -0.00000 0.00000
										CHANNELS 3 Zrotation Yrotation Xrotation
										End Site
										{
											OFFSET 0.79753 -0.00000 0.00000
										}
									}
								}
								JOINT LThumb
								{
									OFFSET 0 0 0
									CHANNELS 3 Zrotation Yrotation Xrotation
									End Site
									{
										OFFSET 0.80972 -0.00000 0.80972
									}
								}
							}
						}
					}
				}
				JOINT RightShoulder
				{
					OFFSET 0 0 0
					CHANNELS 3 Zrotation Yrotation Xrotation
					JOINT RightArm
					{
						OFFSET -2.94414 1.45463 -0.25291
						CHANNELS 3 Zrotation Yrotation Xrotation
						JOINT RightForeArm
						{
							OFFSET -4.71404 -0.00000 0.00000
							CHANNELS 3 Zrotation Yrotation Xrotation
							JOINT RightHand
							{
								OFFSET -2.83468 -0.00000 0.00000
								CHANNELS 3 Zrotation Yrotation Xrotation
								JOINT RightFingerBase
								{
									OFFSET 0 0 0
									CHANNELS 3 Zrotation Yrotation Xrotation
									JOINT RightHandIndex1
									{
										OFFSET -0.86820 -0.00000 0.00000
										CHANNELS 3 Zrotation Yrotation Xrotation
										End Site
										{
											OFFSET -0.69996 -0.00000 0.00000
										}
									}
								}
								JOINT RThumb
								{
									OFFSET 0 0 0
									CHANNELS 3 Zrotation Yrotation Xrotation
									End Site
									{
										OFFSET -0.71065 -0.00000 0.71065
									}
								}
							}
						}
					}
				}
			}
		}
	}
}
MOTION
Frames: 7
Frame Time: 0.05
0.00 0.00 0.00 0 0 0 0 0 0 -21 0 0 0 0 0 0 0 0 0 0 0 0 0 0 21 0 0 0 0 0 0 0 0 0 0 0 0 0 0 0 0 0 0 0 0 0 0 -16 0 0 21 0 0 11 0 0 0 -8 0 0 0 0 0 0 0 0 0 0 0 0 0 0 0 0 0 0 0 0 8 0 0 0 0 0 0 0 0 0 0 0 0 0 0 0 0 0
0.00 0.00 0.00 177.3140 8.3292 -173.6680 0.0000 0.0000 0.0000 -27.3496 2.7394 -1.3636 7.1948 15.4938 49.6075 0.5949 19.1125 18.1298 0.0042 -0.4160 -1.1432 0.0000 0.0000 0.0000 16.8595 13.5596 -35.5932 -2.8559 -10.4581 30.4732 -0.6210 -10.2782 14.7803 -1.5406 7.8353 -22.2150 -5.3592 -5.2798 -3.9563 -0.5599 -6.7051 1.1529 1.8775 -3.4342 3.9547 7.1269 3.7992 -25.5745 -4.7152 10.3221 44.2758 -0.5423 5.6377 25.2677 -0.0000 -0.0000 0.0000 -69.5711 10.9290 56.9656 98.4286 -59.7299 -67.2927 -0.0000 -0.0000 23.0469 15.7358 0.8343 0.2351 -7.1250 0.0000 -0.0000 -8.5908 30.7814 3.0142 -0.0000 -0.0000 0.0000 80.2618 -51.5229 16.3185 -69.8767 58.4132 -42.6656 0.0000 0.0000 4.4593 -10.6363 -3.3116 0.6215 7.1250 -0.0000 -0.0000 12.9496 -33.1431 3.8474
0.00 0.00 0.00 179.2890 9.8570 -176.5300 0.0000 0.0000 0.0000 -23.3919 4.3150 -6.8353 12.1017 18.4333 66.3109 -0.1387 20.8558 13.5584 0.0416 -1.3169 -3.6213 0.0000 0.0000 0.0000 21.9117 11.5574 -28.9529 -4.1021 -12.2951 36.7839 0.1533 -6.9365 -2.9737 -1.1457 6.7967 -19.1144 -3.7532 -3.6781 -0.6564 -0.4579 -4.7544 2.5104 1.4480 -2.4325 3.2212 6.7412 3.7439 -26.0192 -4.3688 9.5653 43.2176 -0.5339 5.2313 24.1594 -0.0000 -0.0000 0.0000 -72.3571 12.1588 54.4017 91.4682 -59.9919 -61.2714 -0.0000 -0.0000 23.9617 16.6001 2.3239 0.6926 -7.1250 0.0000 -0.0000 -8.0515 32.3344 2.5182 -0.0000 -0.0000 0.0000 80.2415 -47.0977 20.9474 -65.7434 57.6557 -39.1585 0.0000 0.0000 5.5023 -11.4877 -3.6920 0.7498 7.1250 -0.0000 -0.0000 12.3279 -33.5536 3.5296
0.00 0.00 0.00 181.7110 9.1322 -176.7760 0.0000 0.0000 0.0000 -17.8176 -5.0386 -24.2128 18.4956 19.9456 85.5976 -1.6957 24.3219 1.2780 0.0708 -1.7168 -4.7236 0.0000 0.0000 0.0000 25.7173 12.4730 -22.0424 -5.7724 -14.2041 44.0614 -0.3095 -12.6763 -21.4881 -0.5334 4.6800 -12.9980 -1.5621 -2.0108 2.4620 -0.4354 -2.5272 3.7534 0.4339 -1.2297 2.5242 6.9435 3.2632 -26.3884 -4.0467 7.4788 41.5167 -1.0178 4.3694 21.9720 -0.0000 0.0000 0.0000 -76.3059 15.0706 46.6895 73.4706 -58.9420 -45.7360 -0.0000 -0.0000 20.6074 16.4671 6.1366 1.8099 -7.1250 0.0000 -0.0000 -8.6219 36.2606 1.8698 -0.0000 0.0000 0.0000 82.0237 -29.5849 30.2540 -57.3383 55.5579 -32.1360 0.0000 0.0000 9.5199 -13.0234 -4.0067 0.9259 7.1250 -0.0000 -0.0000 11.1386 -33.9297 3.0739
0.00 0.00 0.00 182.0690 6.0100 -173.9490 0.0000 0.0000 0.0000 -11.5078 -16.2627 -43.0322 13.2620 18.8747 69.9374 -3.0148 29.4038 -6.2345 0.1607 -2.5826 -7.1186 0.0000 0.0000 0.0000 27.3740 11.0357 -10.3694 -4.6416 -12.9684 39.2504 -0.9037 -16.7296 -30.6720 -0.5399 4.7078 -13.0770 -0.4499 1.2148 3.6689 -0.9254 1.8081 3.5677 -0.7338 0.9862 1.6221 3.1501 -0.7113 -28.9909 -1.3542 1.9921 42.6410 -0.2871 2.2469 23.6004 -0.0000 -0.0000 0.0000 -71.4842 23.4925 46.0967 70.3545 -58.4903 -43.0728 -0.0000 -0.0000 21.4146 17.3816 4.8668 1.5213 -7.1250 0.0000 -0.0000 -7.6997 34.9947 1.9061 -0.0000 -0.0000 0.0000 83.9323 -10.2708 39.3090 -58.7026 55.9542 -33.2638 0.0000 0.0000 11.7480 -12.1994 -0.8396 0.1815 7.1250 -0.0000 -0.0000 11.3691 -30.7228 4.0359
0.00 0.00 0.00 183.4820 5.4657 -170.2750 0.0000 0.0000 0.0000 -8.8496 -15.1828 -51.7311 7.5062 15.7438 50.7639 -2.9340 29.2604 -4.9786 0.1997 -2.8777 -7.9384 0.0000 0.0000 0.0000 28.7104 4.8879 1.1031 -2.3115 -9.4868 27.3302 -0.0739 -18.0628 -26.1966 -1.3260 7.2926 -20.5851 1.4981 5.0949 4.1920 -1.6577 7.0216 2.9167 -2.7340 3.6258 1.0512 -2.0091 -1.0306 -31.9413 3.0538 -5.6006 41.8024 0.0479 -2.7703 24.2446 -0.0000 -0.0000 0.0000 -64.6193 32.1370 45.1507 76.3744 -59.2867 -48.2281 -0.0000 -0.0000 19.1941 16.3773 4.7332 1.3892 -7.1250 0.0000 -0.0000 -8.5079 34.8114 2.1481 -0.0000 -0.0000 0.0000 81.0855 4.9296 43.6394 -61.2937 56.6449 -35.4197 0.0000 0.0000 13.8008 -10.2185 -0.1451 0.0262 7.1250 -0.0000 -0.0000 12.8227 -29.9937 4.8039
0.00 0.00 0.00 184.1680 0.3747 -167.5280 0.0000 0.0000 0.0000 -13.5201 -12.6213 -51.9882 8.7526 16.6459 55.2306 -2.6932 27.5618 -11.3296 0.6330 5.0906 14.1670 0.0000 0.0000 0.0000 28.6036 -3.0650 1.7789 -3.7646 -11.8403 35.1694 0.9207 -17.1018 -10.4069 -2.9892 10.6776 -31.2002 -0.0659 7.0845 3.9443 -3.0749 9.6577 2.2124 -3.4014 4.9405 0.6149 -5.6034 -5.9105 -32.9571 8.3521 -13.6016 39.8082 1.2587 -5.2443 24.9055 0.0000 -0.0000 0.0000 -59.7962 34.8180 42.5747 78.0542 -59.4539 -49.6736 -0.0000 -0.0000 18.5511 16.8264 6.0870 1.8367 -7.1250 0.0000 -0.0000 -8.3161 36.2292 1.8088 0.0000 -0.0000 0.0000 81.8260 11.1783 39.5839 -62.9932 57.0562 -36.8426 0.0000 0.0000 11.1683 -9.9932 -1.9543 0.3443 7.1250 -0.0000 -0.0000 13.2510 -31.7786 4.3893
